# xmcd
#
# Track frame offsets:
#	183
#	23545
#	42340
#	65708
#	84313
#	102575
#	125163
#	145083
#	163795
#	183888
#	203580
#	232023
#
# Disc length: 3533 seconds
#
# Revision: 1
# Processed by: cddbd v1.5.2PL0 Copyright (c) Steve Scherf et al.
# Submitted via: audiograbber 1.83.01
#
DISCID=a30dcb0c
DTITLE=Shalamar - Friends
DYEAR=1982
DGENRE=Funk
TTITLE0=A Night To Remember
TTITLE1=Don't Try To Change Me
TTITLE2=Help Me
TTITLE3=On Top Of The World
TTITLE4=I Don't Wanna Be The Last To Know
TTITLE5=Friends
TTITLE6=Playing To Win
TTITLE7=I Just Stopped By Because I Had To
TTITLE8=There It Is
TTITLE9=I Can Make You Feel Good
TTITLE10=There It Is (12" Remix)
TTITLE11=A Night To Remember (12" Remix)
EXTD=Remaster Year 1996
EXTT0=
EXTT1=
EXTT2=
EXTT3=
EXTT4=
EXTT5=
EXTT6=
EXTT7=
EXTT8=
EXTT9=
EXTT10=
EXTT11=
PLAYORDER=
